# xmcd
#
# Track frame offsets:
#	150
#	13724
#	29255
#	42580
#	56060
#	66092
#	82530
#	92168
#	108338
#	120889
#	131798
#
# Disc length: 1986 seconds
#
# Revision: 1
# Processed by: cddbd v1.5.2PL0 Copyright (c) Steve Scherf et al.
# Submitted via: audiograbber 1.83.01
#
DISCID=8707c00b
DTITLE=John Denverc - Take me to tomorrow
DYEAR=1970
DGENRE=Country
TTITLE0=Take me to tomorrow
TTITLE1=Isabel
TTITLE2=Follow me
TTITLE3=Forrest lawn
TTITLE4=Aspenglow
TTITLE5=Amsterdam
TTITLE6=Anthem - Revelation
TTITLE7=Sticky summer weather
TTITLE8=Carolina in my mind
TTITLE9=Jimmy Newman
TTITLE10=Molly
EXTD=
EXTT0=
EXTT1=
EXTT2=
EXTT3=
EXTT4=
EXTT5=
EXTT6=
EXTT7=
EXTT8=
EXTT9=
EXTT10=
PLAYORDER=
